<mxfile host="app.diagrams.net" agent="Mozilla/5.0 (Windows NT 10.0; Win64; x64) AppleWebKit/537.36 (KHTML, like Gecko) Chrome/136.0.0.0 Safari/537.36" version="27.0.6">
  <diagram name="Page-1" id="STnHS9eQs5rwX8lgGzz5">
    <mxGraphModel dx="1295" dy="633" grid="1" gridSize="10" guides="1" tooltips="1" connect="1" arrows="1" fold="1" page="1" pageScale="1" pageWidth="1654" pageHeight="1169" math="0" shadow="0">
      <root>
        <mxCell id="0" />
        <mxCell id="1" parent="0" />
        <mxCell id="lqGyyjWY5NM0c0FbPmfU-131" value="&lt;font style=&quot;font-size: 10px;&quot;&gt;general manager&lt;/font&gt;" style="text;html=1;align=center;verticalAlign=middle;resizable=0;points=[];autosize=1;strokeColor=none;fillColor=none;" parent="1" vertex="1">
          <mxGeometry x="628.5" y="315.21" width="100" height="30" as="geometry" />
        </mxCell>
        <mxCell id="lqGyyjWY5NM0c0FbPmfU-140" value="&lt;font style=&quot;font-size: 10px;&quot;&gt;abbreviation&lt;/font&gt;" style="text;html=1;align=center;verticalAlign=middle;resizable=0;points=[];autosize=1;strokeColor=none;fillColor=none;" parent="1" vertex="1">
          <mxGeometry x="625.5" y="356" width="80" height="30" as="geometry" />
        </mxCell>
        <mxCell id="lqGyyjWY5NM0c0FbPmfU-82" value="Game" style="swimlane;fontStyle=0;childLayout=stackLayout;horizontal=1;startSize=26;horizontalStack=0;resizeParent=1;resizeParentMax=0;resizeLast=0;collapsible=1;marginBottom=0;align=center;fontSize=14;" parent="1" vertex="1">
          <mxGeometry x="861" y="338.21" width="160" height="260" as="geometry">
            <mxRectangle x="1130" y="142" width="130" height="30" as="alternateBounds" />
          </mxGeometry>
        </mxCell>
        <mxCell id="lqGyyjWY5NM0c0FbPmfU-85" value="&lt;div&gt;&lt;span style=&quot;background-color: transparent; color: light-dark(rgb(0, 0, 0), rgb(255, 255, 255));&quot;&gt;PTS_home&lt;br&gt;AST_home&amp;nbsp;&lt;/span&gt;&lt;/div&gt;&lt;div&gt;&lt;span style=&quot;background-color: transparent; color: light-dark(rgb(0, 0, 0), rgb(255, 255, 255));&quot;&gt;REB_home&lt;br&gt;PTS_away&lt;br&gt;AST_away&lt;br&gt;REB_away&lt;span style=&quot;white-space: pre;&quot;&gt;&#x9;&lt;/span&gt;&lt;br&gt;&lt;/span&gt;&lt;span style=&quot;background-color: transparent; color: light-dark(rgb(0, 0, 0), rgb(255, 255, 255));&quot;&gt;blocks_home&lt;/span&gt;&lt;/div&gt;&lt;div&gt;blocks_away&lt;/div&gt;&lt;div&gt;&lt;div&gt;steals_home&lt;/div&gt;&lt;div&gt;steals_away&lt;/div&gt;&lt;div&gt;turnovers_home&lt;/div&gt;&lt;div&gt;turnovers_away&lt;/div&gt;&lt;div&gt;fouls_home&lt;/div&gt;&lt;/div&gt;&lt;div&gt;fouls_away&lt;/div&gt;&lt;div&gt;&lt;br&gt;&lt;/div&gt;" style="text;strokeColor=none;fillColor=none;spacingLeft=4;spacingRight=4;overflow=hidden;rotatable=0;points=[[0,0.5],[1,0.5]];portConstraint=eastwest;fontSize=12;whiteSpace=wrap;html=1;" parent="lqGyyjWY5NM0c0FbPmfU-82" vertex="1">
          <mxGeometry y="26" width="160" height="234" as="geometry" />
        </mxCell>
        <mxCell id="lqGyyjWY5NM0c0FbPmfU-91" value="Home_Team" style="text;html=1;align=center;verticalAlign=middle;resizable=0;points=[];autosize=1;strokeColor=none;fillColor=none;" parent="1" vertex="1">
          <mxGeometry x="741.5" y="409" width="90" height="30" as="geometry" />
        </mxCell>
        <mxCell id="lqGyyjWY5NM0c0FbPmfU-101" value="" style="endArrow=none;html=1;rounded=0;entryX=1;entryY=0;entryDx=0;entryDy=0;" parent="1" edge="1">
          <mxGeometry relative="1" as="geometry">
            <mxPoint x="640" y="340" as="sourcePoint" />
            <mxPoint x="719.8066017177982" y="485.6033982822018" as="targetPoint" />
            <Array as="points">
              <mxPoint x="720" y="340" />
            </Array>
          </mxGeometry>
        </mxCell>
        <mxCell id="lqGyyjWY5NM0c0FbPmfU-115" value="&lt;font style=&quot;font-size: 10px;&quot;&gt;owner&lt;/font&gt;" style="text;html=1;align=center;verticalAlign=middle;resizable=0;points=[];autosize=1;strokeColor=none;fillColor=none;" parent="1" vertex="1">
          <mxGeometry x="647.5" y="398.00000000000006" width="50" height="30" as="geometry" />
        </mxCell>
        <mxCell id="Ys17MQs9ZZvH2SdcOi4z-31" value="" style="endArrow=none;html=1;rounded=0;entryX=0;entryY=0.5;entryDx=0;entryDy=0;exitX=1;exitY=0.5;exitDx=0;exitDy=0;" parent="1" source="Ys17MQs9ZZvH2SdcOi4z-32" target="HAxubspQe0TTmZOSSiqT-24" edge="1">
          <mxGeometry width="50" height="50" relative="1" as="geometry">
            <mxPoint x="-84" y="441.5" as="sourcePoint" />
            <mxPoint x="-184" y="513.5" as="targetPoint" />
          </mxGeometry>
        </mxCell>
        <mxCell id="Ys17MQs9ZZvH2SdcOi4z-32" value="" style="ellipse;whiteSpace=wrap;html=1;aspect=fixed;" parent="1" vertex="1">
          <mxGeometry x="273.5" y="285.21000000000004" width="30" height="30" as="geometry" />
        </mxCell>
        <mxCell id="Ys17MQs9ZZvH2SdcOi4z-34" value="wins" style="text;html=1;align=center;verticalAlign=middle;resizable=0;points=[];autosize=1;strokeColor=none;fillColor=none;" parent="1" vertex="1">
          <mxGeometry x="223.5" y="285.21000000000004" width="50" height="30" as="geometry" />
        </mxCell>
        <mxCell id="Ys17MQs9ZZvH2SdcOi4z-35" value="" style="endArrow=none;html=1;rounded=0;exitX=1;exitY=0.5;exitDx=0;exitDy=0;entryX=0;entryY=0.5;entryDx=0;entryDy=0;" parent="1" source="Ys17MQs9ZZvH2SdcOi4z-36" target="HAxubspQe0TTmZOSSiqT-24" edge="1">
          <mxGeometry width="50" height="50" relative="1" as="geometry">
            <mxPoint x="-104" y="493.5" as="sourcePoint" />
            <mxPoint x="383.5" y="255.20999999999998" as="targetPoint" />
          </mxGeometry>
        </mxCell>
        <mxCell id="Ys17MQs9ZZvH2SdcOi4z-36" value="" style="ellipse;whiteSpace=wrap;html=1;aspect=fixed;" parent="1" vertex="1">
          <mxGeometry x="273.5" y="329.2900000000001" width="30" height="30" as="geometry" />
        </mxCell>
        <mxCell id="Ys17MQs9ZZvH2SdcOi4z-37" value="lose" style="text;html=1;align=center;verticalAlign=middle;resizable=0;points=[];autosize=1;strokeColor=none;fillColor=none;" parent="1" vertex="1">
          <mxGeometry x="223.5" y="330.71000000000004" width="50" height="30" as="geometry" />
        </mxCell>
        <mxCell id="Ys17MQs9ZZvH2SdcOi4z-41" value="" style="endArrow=none;html=1;rounded=0;exitX=0.5;exitY=1;exitDx=0;exitDy=0;entryX=0;entryY=0.5;entryDx=0;entryDy=0;" parent="1" source="HAxubspQe0TTmZOSSiqT-42" target="Ys17MQs9ZZvH2SdcOi4z-51" edge="1">
          <mxGeometry width="50" height="50" relative="1" as="geometry">
            <mxPoint x="681.5" y="771.2199999999999" as="sourcePoint" />
            <mxPoint x="781.5" y="771.2199999999999" as="targetPoint" />
          </mxGeometry>
        </mxCell>
        <mxCell id="Ys17MQs9ZZvH2SdcOi4z-42" value="" style="endArrow=none;html=1;rounded=0;exitX=0.5;exitY=1;exitDx=0;exitDy=0;entryX=0.5;entryY=0;entryDx=0;entryDy=0;" parent="1" source="HAxubspQe0TTmZOSSiqT-42" target="Ys17MQs9ZZvH2SdcOi4z-49" edge="1">
          <mxGeometry width="50" height="50" relative="1" as="geometry">
            <mxPoint x="681.5" y="771.2199999999999" as="sourcePoint" />
            <mxPoint x="771.5" y="811.2199999999999" as="targetPoint" />
          </mxGeometry>
        </mxCell>
        <mxCell id="Ys17MQs9ZZvH2SdcOi4z-43" value="" style="endArrow=none;html=1;rounded=0;exitX=0.5;exitY=1;exitDx=0;exitDy=0;entryX=0.5;entryY=0;entryDx=0;entryDy=0;" parent="1" source="HAxubspQe0TTmZOSSiqT-42" target="Ys17MQs9ZZvH2SdcOi4z-47" edge="1">
          <mxGeometry width="50" height="50" relative="1" as="geometry">
            <mxPoint x="651.5" y="678.29" as="sourcePoint" />
            <mxPoint x="696.5" y="841.2199999999999" as="targetPoint" />
          </mxGeometry>
        </mxCell>
        <mxCell id="Ys17MQs9ZZvH2SdcOi4z-44" value="" style="endArrow=none;html=1;rounded=0;exitX=0.5;exitY=1;exitDx=0;exitDy=0;entryX=0.5;entryY=0;entryDx=0;entryDy=0;" parent="1" source="HAxubspQe0TTmZOSSiqT-42" target="Ys17MQs9ZZvH2SdcOi4z-45" edge="1">
          <mxGeometry width="50" height="50" relative="1" as="geometry">
            <mxPoint x="681.5" y="771.2199999999999" as="sourcePoint" />
            <mxPoint x="686.5" y="864.2199999999999" as="targetPoint" />
          </mxGeometry>
        </mxCell>
        <mxCell id="Ys17MQs9ZZvH2SdcOi4z-45" value="" style="ellipse;whiteSpace=wrap;html=1;aspect=fixed;" parent="1" vertex="1">
          <mxGeometry x="576.5" y="879.9999999999999" width="30" height="30" as="geometry" />
        </mxCell>
        <mxCell id="Ys17MQs9ZZvH2SdcOi4z-46" value="game_played" style="text;html=1;align=center;verticalAlign=middle;resizable=0;points=[];autosize=1;strokeColor=none;fillColor=none;" parent="1" vertex="1">
          <mxGeometry x="490" y="899.9999999999998" width="100" height="30" as="geometry" />
        </mxCell>
        <mxCell id="Ys17MQs9ZZvH2SdcOi4z-47" value="" style="ellipse;whiteSpace=wrap;html=1;aspect=fixed;" parent="1" vertex="1">
          <mxGeometry x="621.5" y="915.8599999999999" width="30" height="30" as="geometry" />
        </mxCell>
        <mxCell id="Ys17MQs9ZZvH2SdcOi4z-48" value="country" style="text;html=1;align=center;verticalAlign=middle;resizable=0;points=[];autosize=1;strokeColor=none;fillColor=none;" parent="1" vertex="1">
          <mxGeometry x="601.5" y="945.8599999999999" width="60" height="30" as="geometry" />
        </mxCell>
        <mxCell id="Ys17MQs9ZZvH2SdcOi4z-49" value="" style="ellipse;whiteSpace=wrap;html=1;aspect=fixed;" parent="1" vertex="1">
          <mxGeometry x="689.78" y="930" width="31.72" height="31.72" as="geometry" />
        </mxCell>
        <mxCell id="Ys17MQs9ZZvH2SdcOi4z-50" value="height" style="text;html=1;align=center;verticalAlign=middle;resizable=0;points=[];autosize=1;strokeColor=none;fillColor=none;" parent="1" vertex="1">
          <mxGeometry x="681.5" y="961.7199999999999" width="60" height="30" as="geometry" />
        </mxCell>
        <mxCell id="Ys17MQs9ZZvH2SdcOi4z-51" value="" style="ellipse;whiteSpace=wrap;html=1;aspect=fixed;" parent="1" vertex="1">
          <mxGeometry x="831.5" y="879.9999999999999" width="30" height="30" as="geometry" />
        </mxCell>
        <mxCell id="Ys17MQs9ZZvH2SdcOi4z-53" value="weight" style="text;html=1;align=center;verticalAlign=middle;resizable=0;points=[];autosize=1;strokeColor=none;fillColor=none;" parent="1" vertex="1">
          <mxGeometry x="856.5" y="879.9999999999999" width="60" height="30" as="geometry" />
        </mxCell>
        <mxCell id="Ys17MQs9ZZvH2SdcOi4z-60" value="" style="endArrow=none;html=1;rounded=0;entryX=0;entryY=0.5;entryDx=0;entryDy=0;exitX=1;exitY=0.5;exitDx=0;exitDy=0;" parent="1" source="Ys17MQs9ZZvH2SdcOi4z-61" target="HAxubspQe0TTmZOSSiqT-24" edge="1">
          <mxGeometry width="50" height="50" relative="1" as="geometry">
            <mxPoint x="-94" y="393.5" as="sourcePoint" />
            <mxPoint x="66" y="453.5" as="targetPoint" />
          </mxGeometry>
        </mxCell>
        <mxCell id="Ys17MQs9ZZvH2SdcOi4z-61" value="" style="ellipse;whiteSpace=wrap;html=1;aspect=fixed;" parent="1" vertex="1">
          <mxGeometry x="273.5" y="238.20999999999998" width="30" height="30" as="geometry" />
        </mxCell>
        <mxCell id="uUU-sFvdg4GG319mq6XO-7" value="" style="endArrow=none;html=1;rounded=0;entryX=0;entryY=0;entryDx=0;entryDy=0;exitX=0.5;exitY=1;exitDx=0;exitDy=0;" parent="1" source="HAxubspQe0TTmZOSSiqT-42" target="uUU-sFvdg4GG319mq6XO-8" edge="1">
          <mxGeometry width="50" height="50" relative="1" as="geometry">
            <mxPoint x="691.5" y="680" as="sourcePoint" />
            <mxPoint x="786" y="731.2199999999999" as="targetPoint" />
          </mxGeometry>
        </mxCell>
        <mxCell id="uUU-sFvdg4GG319mq6XO-8" value="" style="ellipse;whiteSpace=wrap;html=1;aspect=fixed;" parent="1" vertex="1">
          <mxGeometry x="771.5" y="915.86" width="30" height="30" as="geometry" />
        </mxCell>
        <mxCell id="uUU-sFvdg4GG319mq6XO-9" value="college" style="text;html=1;align=center;verticalAlign=middle;resizable=0;points=[];autosize=1;strokeColor=none;fillColor=none;" parent="1" vertex="1">
          <mxGeometry x="756.5" y="945.86" width="60" height="30" as="geometry" />
        </mxCell>
        <mxCell id="HAxubspQe0TTmZOSSiqT-1" value="" style="ellipse;whiteSpace=wrap;html=1;aspect=fixed;" parent="1" vertex="1">
          <mxGeometry x="926" y="227" width="30" height="30" as="geometry" />
        </mxCell>
        <mxCell id="HAxubspQe0TTmZOSSiqT-3" value="Date" style="text;html=1;align=center;verticalAlign=middle;resizable=0;points=[];autosize=1;strokeColor=none;fillColor=none;" parent="1" vertex="1">
          <mxGeometry x="956" y="227" width="50" height="30" as="geometry" />
        </mxCell>
        <mxCell id="HAxubspQe0TTmZOSSiqT-4" value="" style="ellipse;whiteSpace=wrap;html=1;aspect=fixed;" parent="1" vertex="1">
          <mxGeometry x="926" y="170" width="30" height="30" as="geometry" />
        </mxCell>
        <mxCell id="HAxubspQe0TTmZOSSiqT-5" value="" style="ellipse;whiteSpace=wrap;html=1;aspect=fixed;" parent="1" vertex="1">
          <mxGeometry x="926" y="110" width="30" height="30" as="geometry" />
        </mxCell>
        <mxCell id="HAxubspQe0TTmZOSSiqT-7" value="" style="endArrow=none;html=1;rounded=0;entryX=0.5;entryY=1;entryDx=0;entryDy=0;exitX=0.5;exitY=0;exitDx=0;exitDy=0;" parent="1" source="HAxubspQe0TTmZOSSiqT-1" target="HAxubspQe0TTmZOSSiqT-4" edge="1">
          <mxGeometry width="50" height="50" relative="1" as="geometry">
            <mxPoint x="628.5" y="257" as="sourcePoint" />
            <mxPoint x="678.5" y="207" as="targetPoint" />
          </mxGeometry>
        </mxCell>
        <mxCell id="HAxubspQe0TTmZOSSiqT-8" value="month" style="text;html=1;align=center;verticalAlign=middle;resizable=0;points=[];autosize=1;strokeColor=none;fillColor=none;" parent="1" vertex="1">
          <mxGeometry x="953.5" y="170" width="60" height="30" as="geometry" />
        </mxCell>
        <mxCell id="HAxubspQe0TTmZOSSiqT-9" value="year" style="text;html=1;align=center;verticalAlign=middle;resizable=0;points=[];autosize=1;strokeColor=none;fillColor=none;" parent="1" vertex="1">
          <mxGeometry x="953.5" y="100" width="50" height="30" as="geometry" />
        </mxCell>
        <mxCell id="HAxubspQe0TTmZOSSiqT-10" value="Away_Team" style="text;html=1;align=center;verticalAlign=middle;resizable=0;points=[];autosize=1;strokeColor=none;fillColor=none;" parent="1" vertex="1">
          <mxGeometry x="756.5" y="524.5" width="90" height="30" as="geometry" />
        </mxCell>
        <mxCell id="HAxubspQe0TTmZOSSiqT-11" value="" style="ellipse;whiteSpace=wrap;html=1;aspect=fixed;" parent="1" vertex="1">
          <mxGeometry x="689.5" y="471" width="30" height="30" as="geometry" />
        </mxCell>
        <mxCell id="HAxubspQe0TTmZOSSiqT-12" value="" style="endArrow=none;html=1;rounded=0;entryX=-0.005;entryY=0.213;entryDx=0;entryDy=0;exitX=1;exitY=0.5;exitDx=0;exitDy=0;entryPerimeter=0;" parent="1" source="HAxubspQe0TTmZOSSiqT-11" target="lqGyyjWY5NM0c0FbPmfU-85" edge="1">
          <mxGeometry width="50" height="50" relative="1" as="geometry">
            <mxPoint x="648.5" y="550" as="sourcePoint" />
            <mxPoint x="698.5" y="500" as="targetPoint" />
          </mxGeometry>
        </mxCell>
        <mxCell id="HAxubspQe0TTmZOSSiqT-14" value="" style="ellipse;whiteSpace=wrap;html=1;aspect=fixed;shadow=1;" parent="1" vertex="1">
          <mxGeometry x="694.5" y="476" width="20" height="20" as="geometry" />
        </mxCell>
        <mxCell id="HAxubspQe0TTmZOSSiqT-15" value="" style="endArrow=none;html=1;rounded=0;entryX=1;entryY=0.5;entryDx=0;entryDy=0;exitX=0.001;exitY=0.741;exitDx=0;exitDy=0;exitPerimeter=0;" parent="1" source="lqGyyjWY5NM0c0FbPmfU-85" target="HAxubspQe0TTmZOSSiqT-11" edge="1">
          <mxGeometry width="50" height="50" relative="1" as="geometry">
            <mxPoint x="648.5" y="550" as="sourcePoint" />
            <mxPoint x="698.5" y="500" as="targetPoint" />
          </mxGeometry>
        </mxCell>
        <mxCell id="HAxubspQe0TTmZOSSiqT-16" value="Team" style="text;html=1;align=center;verticalAlign=middle;resizable=0;points=[];autosize=1;strokeColor=none;fillColor=none;" parent="1" vertex="1">
          <mxGeometry x="719.5" y="472.79" width="50" height="30" as="geometry" />
        </mxCell>
        <mxCell id="HAxubspQe0TTmZOSSiqT-19" value="" style="endArrow=none;html=1;rounded=0;entryX=0;entryY=0.5;entryDx=0;entryDy=0;exitX=1;exitY=0.5;exitDx=0;exitDy=0;" parent="1" source="HAxubspQe0TTmZOSSiqT-24" target="HAxubspQe0TTmZOSSiqT-11" edge="1">
          <mxGeometry width="50" height="50" relative="1" as="geometry">
            <mxPoint x="518.5" y="470" as="sourcePoint" />
            <mxPoint x="498.5" y="490" as="targetPoint" />
          </mxGeometry>
        </mxCell>
        <mxCell id="HAxubspQe0TTmZOSSiqT-22" value="" style="ellipse;whiteSpace=wrap;html=1;aspect=fixed;" parent="1" vertex="1">
          <mxGeometry x="408.5" y="502.78999999999996" width="30" height="30" as="geometry" />
        </mxCell>
        <mxCell id="HAxubspQe0TTmZOSSiqT-23" value="" style="ellipse;whiteSpace=wrap;html=1;aspect=fixed;" parent="1" vertex="1">
          <mxGeometry x="548.5" y="502.78999999999996" width="30" height="30" as="geometry" />
        </mxCell>
        <mxCell id="HAxubspQe0TTmZOSSiqT-24" value="" style="ellipse;whiteSpace=wrap;html=1;aspect=fixed;" parent="1" vertex="1">
          <mxGeometry x="408.5" y="292.78999999999996" width="30" height="30" as="geometry" />
        </mxCell>
        <mxCell id="HAxubspQe0TTmZOSSiqT-26" value="" style="endArrow=none;html=1;rounded=0;entryX=0;entryY=0.5;entryDx=0;entryDy=0;exitX=1;exitY=0.5;exitDx=0;exitDy=0;" parent="1" source="HAxubspQe0TTmZOSSiqT-23" target="HAxubspQe0TTmZOSSiqT-11" edge="1">
          <mxGeometry width="50" height="50" relative="1" as="geometry">
            <mxPoint x="598.5" y="550" as="sourcePoint" />
            <mxPoint x="498.5" y="490" as="targetPoint" />
          </mxGeometry>
        </mxCell>
        <mxCell id="HAxubspQe0TTmZOSSiqT-27" value="arena" style="text;html=1;align=center;verticalAlign=middle;resizable=0;points=[];autosize=1;strokeColor=none;fillColor=none;" parent="1" vertex="1">
          <mxGeometry x="578.5" y="518.29" width="50" height="30" as="geometry" />
        </mxCell>
        <mxCell id="HAxubspQe0TTmZOSSiqT-28" value="" style="endArrow=none;html=1;rounded=0;entryX=0.5;entryY=1;entryDx=0;entryDy=0;" parent="1" target="HAxubspQe0TTmZOSSiqT-23" edge="1">
          <mxGeometry width="50" height="50" relative="1" as="geometry">
            <mxPoint x="488.5" y="580" as="sourcePoint" />
            <mxPoint x="498.5" y="490" as="targetPoint" />
            <Array as="points">
              <mxPoint x="563.5" y="580" />
            </Array>
          </mxGeometry>
        </mxCell>
        <mxCell id="HAxubspQe0TTmZOSSiqT-29" value="arena capacity" style="text;html=1;align=center;verticalAlign=middle;resizable=0;points=[];autosize=1;strokeColor=none;fillColor=none;" parent="1" vertex="1">
          <mxGeometry x="468.5" y="548.29" width="100" height="30" as="geometry" />
        </mxCell>
        <mxCell id="HAxubspQe0TTmZOSSiqT-30" value="" style="endArrow=none;html=1;rounded=0;entryX=0;entryY=0.5;entryDx=0;entryDy=0;exitX=1;exitY=0.5;exitDx=0;exitDy=0;" parent="1" source="HAxubspQe0TTmZOSSiqT-22" target="HAxubspQe0TTmZOSSiqT-23" edge="1">
          <mxGeometry width="50" height="50" relative="1" as="geometry">
            <mxPoint x="448.5" y="518" as="sourcePoint" />
            <mxPoint x="498.5" y="490" as="targetPoint" />
          </mxGeometry>
        </mxCell>
        <mxCell id="HAxubspQe0TTmZOSSiqT-31" value="city" style="text;html=1;align=center;verticalAlign=middle;resizable=0;points=[];autosize=1;strokeColor=none;fillColor=none;" parent="1" vertex="1">
          <mxGeometry x="403.5" y="527" width="40" height="30" as="geometry" />
        </mxCell>
        <mxCell id="HAxubspQe0TTmZOSSiqT-33" value="&lt;font style=&quot;font-size: 10px;&quot;&gt;year founded&lt;/font&gt;" style="text;html=1;align=center;verticalAlign=middle;resizable=0;points=[];autosize=1;strokeColor=none;fillColor=none;" parent="1" vertex="1">
          <mxGeometry x="628.5" y="338.21000000000004" width="80" height="30" as="geometry" />
        </mxCell>
        <mxCell id="HAxubspQe0TTmZOSSiqT-34" value="" style="endArrow=none;html=1;rounded=0;entryX=0;entryY=0.5;entryDx=0;entryDy=0;exitX=0.372;exitY=0.921;exitDx=0;exitDy=0;exitPerimeter=0;" parent="1" source="HAxubspQe0TTmZOSSiqT-36" target="HAxubspQe0TTmZOSSiqT-11" edge="1">
          <mxGeometry width="50" height="50" relative="1" as="geometry">
            <mxPoint x="660" y="440" as="sourcePoint" />
            <mxPoint x="658.5" y="450" as="targetPoint" />
            <Array as="points">
              <mxPoint x="690" y="448" />
            </Array>
          </mxGeometry>
        </mxCell>
        <mxCell id="HAxubspQe0TTmZOSSiqT-36" value="&lt;font style=&quot;font-size: 9px;&quot;&gt;head_Coach&lt;/font&gt;" style="text;html=1;align=center;verticalAlign=middle;resizable=0;points=[];autosize=1;strokeColor=none;fillColor=none;" parent="1" vertex="1">
          <mxGeometry x="630.5" y="420" width="70" height="30" as="geometry" />
        </mxCell>
        <mxCell id="HAxubspQe0TTmZOSSiqT-42" value="" style="ellipse;whiteSpace=wrap;html=1;aspect=fixed;" parent="1" vertex="1">
          <mxGeometry x="689.78" y="810" width="30" height="30" as="geometry" />
        </mxCell>
        <mxCell id="HAxubspQe0TTmZOSSiqT-46" value="" style="endArrow=none;html=1;rounded=0;entryX=0.5;entryY=1;entryDx=0;entryDy=0;exitX=0.5;exitY=0;exitDx=0;exitDy=0;" parent="1" source="HAxubspQe0TTmZOSSiqT-42" target="HAxubspQe0TTmZOSSiqT-11" edge="1">
          <mxGeometry width="50" height="50" relative="1" as="geometry">
            <mxPoint x="703.5" y="640" as="sourcePoint" />
            <mxPoint x="658.5" y="450" as="targetPoint" />
          </mxGeometry>
        </mxCell>
        <mxCell id="HAxubspQe0TTmZOSSiqT-47" value="" style="endArrow=none;html=1;rounded=0;entryX=0;entryY=1;entryDx=0;entryDy=0;exitX=0;exitY=0;exitDx=0;exitDy=0;" parent="1" source="HAxubspQe0TTmZOSSiqT-42" target="HAxubspQe0TTmZOSSiqT-11" edge="1">
          <mxGeometry width="50" height="50" relative="1" as="geometry">
            <mxPoint x="692.5" y="650" as="sourcePoint" />
            <mxPoint x="658.5" y="450" as="targetPoint" />
          </mxGeometry>
        </mxCell>
        <mxCell id="HAxubspQe0TTmZOSSiqT-48" value="Player" style="text;html=1;align=center;verticalAlign=middle;resizable=0;points=[];autosize=1;strokeColor=none;fillColor=none;" parent="1" vertex="1">
          <mxGeometry x="711.5" y="800" width="60" height="30" as="geometry" />
        </mxCell>
        <mxCell id="HAxubspQe0TTmZOSSiqT-53" value="" style="ellipse;whiteSpace=wrap;html=1;aspect=fixed;" parent="1" vertex="1">
          <mxGeometry x="1280" y="518.2899999999998" width="30" height="30" as="geometry" />
        </mxCell>
        <mxCell id="HAxubspQe0TTmZOSSiqT-55" value="season" style="text;html=1;align=center;verticalAlign=middle;resizable=0;points=[];autosize=1;strokeColor=none;fillColor=none;" parent="1" vertex="1">
          <mxGeometry x="1280" y="497" width="60" height="30" as="geometry" />
        </mxCell>
        <mxCell id="HAxubspQe0TTmZOSSiqT-59" value="ranking" style="text;html=1;align=center;verticalAlign=middle;resizable=0;points=[];autosize=1;strokeColor=none;fillColor=none;" parent="1" vertex="1">
          <mxGeometry x="393.5" y="315.2099999999999" width="60" height="30" as="geometry" />
        </mxCell>
        <mxCell id="HAxubspQe0TTmZOSSiqT-62" value="" style="endArrow=none;html=1;rounded=0;entryX=0;entryY=0.5;entryDx=0;entryDy=0;exitX=1;exitY=0.5;exitDx=0;exitDy=0;" parent="1" source="HAxubspQe0TTmZOSSiqT-64" target="HAxubspQe0TTmZOSSiqT-22" edge="1">
          <mxGeometry width="50" height="50" relative="1" as="geometry">
            <mxPoint x="298.5" y="518" as="sourcePoint" />
            <mxPoint x="768.5" y="580" as="targetPoint" />
          </mxGeometry>
        </mxCell>
        <mxCell id="HAxubspQe0TTmZOSSiqT-64" value="" style="ellipse;whiteSpace=wrap;html=1;aspect=fixed;" parent="1" vertex="1">
          <mxGeometry x="243.5" y="502.78999999999996" width="30" height="30" as="geometry" />
        </mxCell>
        <mxCell id="HAxubspQe0TTmZOSSiqT-65" value="conference" style="text;html=1;align=center;verticalAlign=middle;resizable=0;points=[];autosize=1;strokeColor=none;fillColor=none;" parent="1" vertex="1">
          <mxGeometry x="170" y="502.78999999999996" width="80" height="30" as="geometry" />
        </mxCell>
        <mxCell id="HAxubspQe0TTmZOSSiqT-66" value="game_Played" style="text;html=1;align=center;verticalAlign=middle;resizable=0;points=[];autosize=1;strokeColor=none;fillColor=none;" parent="1" vertex="1">
          <mxGeometry x="173.5" y="237" width="100" height="30" as="geometry" />
        </mxCell>
        <mxCell id="HAxubspQe0TTmZOSSiqT-67" value="&lt;font style=&quot;font-size: 10px;&quot;&gt;nickname&lt;/font&gt;" style="text;html=1;align=center;verticalAlign=middle;resizable=0;points=[];autosize=1;strokeColor=none;fillColor=none;" parent="1" vertex="1">
          <mxGeometry x="635.5" y="379.00000000000006" width="70" height="30" as="geometry" />
        </mxCell>
        <mxCell id="HAxubspQe0TTmZOSSiqT-70" value="" style="endArrow=none;html=1;rounded=0;entryX=0.5;entryY=1;entryDx=0;entryDy=0;exitX=0.5;exitY=0;exitDx=0;exitDy=0;" parent="1" source="HAxubspQe0TTmZOSSiqT-4" target="HAxubspQe0TTmZOSSiqT-5" edge="1">
          <mxGeometry width="50" height="50" relative="1" as="geometry">
            <mxPoint x="778.5" y="200" as="sourcePoint" />
            <mxPoint x="828.5" y="150" as="targetPoint" />
          </mxGeometry>
        </mxCell>
        <mxCell id="HAxubspQe0TTmZOSSiqT-71" value="" style="endArrow=none;html=1;rounded=0;exitX=1;exitY=0.5;exitDx=0;exitDy=0;entryX=0;entryY=0.5;entryDx=0;entryDy=0;" parent="1" source="HAxubspQe0TTmZOSSiqT-24" target="HAxubspQe0TTmZOSSiqT-53" edge="1">
          <mxGeometry width="50" height="50" relative="1" as="geometry">
            <mxPoint x="758.5" y="260" as="sourcePoint" />
            <mxPoint x="1090" y="170" as="targetPoint" />
            <Array as="points">
              <mxPoint x="1280" y="310" />
            </Array>
          </mxGeometry>
        </mxCell>
        <mxCell id="HAxubspQe0TTmZOSSiqT-73" value="" style="verticalLabelPosition=bottom;verticalAlign=top;html=1;shape=mxgraph.basic.arc;startAngle=0.31358486571180094;endAngle=0.3715655344365107;" parent="1" vertex="1">
          <mxGeometry x="373.5" y="238.21000000000004" width="100" height="100" as="geometry" />
        </mxCell>
        <mxCell id="HAxubspQe0TTmZOSSiqT-74" value="" style="endArrow=none;html=1;rounded=0;entryX=0;entryY=0.5;entryDx=0;entryDy=0;exitX=1;exitY=0.5;exitDx=0;exitDy=0;" parent="1" source="HAxubspQe0TTmZOSSiqT-64" target="HAxubspQe0TTmZOSSiqT-24" edge="1">
          <mxGeometry width="50" height="50" relative="1" as="geometry">
            <mxPoint x="618.5" y="610" as="sourcePoint" />
            <mxPoint x="668.5" y="560" as="targetPoint" />
          </mxGeometry>
        </mxCell>
        <mxCell id="HAxubspQe0TTmZOSSiqT-75" value="" style="endArrow=none;html=1;rounded=0;exitX=0;exitY=0.5;exitDx=0;exitDy=0;" parent="1" source="HAxubspQe0TTmZOSSiqT-42" edge="1">
          <mxGeometry width="50" height="50" relative="1" as="geometry">
            <mxPoint x="901.5" y="710" as="sourcePoint" />
            <mxPoint x="541.5" y="760" as="targetPoint" />
            <Array as="points">
              <mxPoint x="641.5" y="760" />
            </Array>
          </mxGeometry>
        </mxCell>
        <mxCell id="HAxubspQe0TTmZOSSiqT-76" value="draft_year" style="text;html=1;align=center;verticalAlign=middle;resizable=0;points=[];autosize=1;strokeColor=none;fillColor=none;" parent="1" vertex="1">
          <mxGeometry x="551.5" y="786.71" width="80" height="30" as="geometry" />
        </mxCell>
        <mxCell id="HAxubspQe0TTmZOSSiqT-77" value="" style="endArrow=none;html=1;rounded=0;exitX=0;exitY=0.5;exitDx=0;exitDy=0;" parent="1" source="HAxubspQe0TTmZOSSiqT-42" edge="1">
          <mxGeometry width="50" height="50" relative="1" as="geometry">
            <mxPoint x="901.5" y="710" as="sourcePoint" />
            <mxPoint x="541.5" y="780" as="targetPoint" />
            <Array as="points">
              <mxPoint x="641.5" y="780" />
            </Array>
          </mxGeometry>
        </mxCell>
        <mxCell id="HAxubspQe0TTmZOSSiqT-78" value="draft_round" style="text;html=1;align=center;verticalAlign=middle;resizable=0;points=[];autosize=1;strokeColor=none;fillColor=none;" parent="1" vertex="1">
          <mxGeometry x="554.5" y="756.71" width="80" height="30" as="geometry" />
        </mxCell>
        <mxCell id="HAxubspQe0TTmZOSSiqT-79" value="" style="endArrow=none;html=1;rounded=0;exitX=0;exitY=0.5;exitDx=0;exitDy=0;" parent="1" source="HAxubspQe0TTmZOSSiqT-42" edge="1">
          <mxGeometry width="50" height="50" relative="1" as="geometry">
            <mxPoint x="611.5" y="780" as="sourcePoint" />
            <mxPoint x="541.5" y="810" as="targetPoint" />
            <Array as="points">
              <mxPoint x="641.5" y="810" />
            </Array>
          </mxGeometry>
        </mxCell>
        <mxCell id="HAxubspQe0TTmZOSSiqT-80" value="draft_number" style="text;html=1;align=center;verticalAlign=middle;resizable=0;points=[];autosize=1;strokeColor=none;fillColor=none;" parent="1" vertex="1">
          <mxGeometry x="551.5" y="730" width="90" height="30" as="geometry" />
        </mxCell>
        <mxCell id="HAxubspQe0TTmZOSSiqT-81" value="" style="endArrow=none;html=1;rounded=0;entryX=0;entryY=0.5;entryDx=0;entryDy=0;exitX=0.5;exitY=0;exitDx=0;exitDy=0;" parent="1" source="HAxubspQe0TTmZOSSiqT-42" target="HAxubspQe0TTmZOSSiqT-53" edge="1">
          <mxGeometry width="50" height="50" relative="1" as="geometry">
            <mxPoint x="418.5" y="750" as="sourcePoint" />
            <mxPoint x="468.5" y="700" as="targetPoint" />
            <Array as="points" />
          </mxGeometry>
        </mxCell>
        <mxCell id="HAxubspQe0TTmZOSSiqT-82" value="" style="verticalLabelPosition=bottom;verticalAlign=top;html=1;shape=mxgraph.basic.arc;startAngle=0.043023615119193566;endAngle=0.12265965483127665;" parent="1" vertex="1">
          <mxGeometry x="641.5" y="786.7099999999999" width="100" height="100" as="geometry" />
        </mxCell>
        <mxCell id="rmlVPVZ7KGybjE69mIBt-1" value="" style="endArrow=none;html=1;rounded=0;entryX=0.5;entryY=1;entryDx=0;entryDy=0;exitX=0.5;exitY=0;exitDx=0;exitDy=0;" parent="1" source="lqGyyjWY5NM0c0FbPmfU-82" target="HAxubspQe0TTmZOSSiqT-1" edge="1">
          <mxGeometry width="50" height="50" relative="1" as="geometry">
            <mxPoint x="820" y="340" as="sourcePoint" />
            <mxPoint x="870" y="290" as="targetPoint" />
          </mxGeometry>
        </mxCell>
        <mxCell id="rmlVPVZ7KGybjE69mIBt-2" value="" style="endArrow=none;html=1;rounded=0;entryX=1.012;entryY=0.65;entryDx=0;entryDy=0;entryPerimeter=0;exitX=0;exitY=0.5;exitDx=0;exitDy=0;" parent="1" source="HAxubspQe0TTmZOSSiqT-53" target="lqGyyjWY5NM0c0FbPmfU-85" edge="1">
          <mxGeometry width="50" height="50" relative="1" as="geometry">
            <mxPoint x="820" y="740" as="sourcePoint" />
            <mxPoint x="870" y="690" as="targetPoint" />
          </mxGeometry>
        </mxCell>
        <mxCell id="GS6m8zJGMtgKhHzVI7Pk-4" value="" style="ellipse;whiteSpace=wrap;html=1;aspect=fixed;" parent="1" vertex="1">
          <mxGeometry x="931.5" y="809.9999999999999" width="30" height="30" as="geometry" />
        </mxCell>
        <mxCell id="GS6m8zJGMtgKhHzVI7Pk-5" value="" style="endArrow=none;html=1;rounded=0;exitX=1;exitY=0.5;exitDx=0;exitDy=0;entryX=0;entryY=0.5;entryDx=0;entryDy=0;" parent="1" source="HAxubspQe0TTmZOSSiqT-42" target="GS6m8zJGMtgKhHzVI7Pk-4" edge="1">
          <mxGeometry width="50" height="50" relative="1" as="geometry">
            <mxPoint x="715" y="850" as="sourcePoint" />
            <mxPoint x="926.5" y="825" as="targetPoint" />
          </mxGeometry>
        </mxCell>
        <mxCell id="GS6m8zJGMtgKhHzVI7Pk-6" value="Player Performance" style="text;html=1;align=center;verticalAlign=middle;resizable=0;points=[];autosize=1;strokeColor=none;fillColor=none;" parent="1" vertex="1">
          <mxGeometry x="810" y="838.44" width="130" height="30" as="geometry" />
        </mxCell>
        <mxCell id="GS6m8zJGMtgKhHzVI7Pk-9" value="" style="endArrow=none;html=1;rounded=0;exitX=0;exitY=0;exitDx=0;exitDy=0;entryX=0.467;entryY=0.998;entryDx=0;entryDy=0;entryPerimeter=0;" parent="1" source="GS6m8zJGMtgKhHzVI7Pk-4" target="lqGyyjWY5NM0c0FbPmfU-85" edge="1">
          <mxGeometry width="50" height="50" relative="1" as="geometry">
            <mxPoint x="1010" y="710" as="sourcePoint" />
            <mxPoint x="1060" y="660" as="targetPoint" />
          </mxGeometry>
        </mxCell>
        <mxCell id="GS6m8zJGMtgKhHzVI7Pk-10" value="" style="endArrow=none;html=1;rounded=0;entryX=0.534;entryY=0.997;entryDx=0;entryDy=0;entryPerimeter=0;exitX=0.5;exitY=0;exitDx=0;exitDy=0;" parent="1" source="GS6m8zJGMtgKhHzVI7Pk-4" target="lqGyyjWY5NM0c0FbPmfU-85" edge="1">
          <mxGeometry width="50" height="50" relative="1" as="geometry">
            <mxPoint x="970" y="810" as="sourcePoint" />
            <mxPoint x="946" y="651" as="targetPoint" />
          </mxGeometry>
        </mxCell>
        <mxCell id="GS6m8zJGMtgKhHzVI7Pk-13" value="" style="endArrow=none;html=1;rounded=0;exitX=1;exitY=0.5;exitDx=0;exitDy=0;entryX=0;entryY=1;entryDx=0;entryDy=0;" parent="1" source="GS6m8zJGMtgKhHzVI7Pk-4" target="GS6m8zJGMtgKhHzVI7Pk-14" edge="1">
          <mxGeometry width="50" height="50" relative="1" as="geometry">
            <mxPoint x="963" y="867.5" as="sourcePoint" />
            <mxPoint x="1090" y="922.5" as="targetPoint" />
          </mxGeometry>
        </mxCell>
        <mxCell id="GS6m8zJGMtgKhHzVI7Pk-14" value="" style="ellipse;whiteSpace=wrap;html=1;aspect=fixed;" parent="1" vertex="1">
          <mxGeometry x="1006" y="739.9999999999999" width="30" height="30" as="geometry" />
        </mxCell>
        <mxCell id="GS6m8zJGMtgKhHzVI7Pk-15" value="" style="ellipse;whiteSpace=wrap;html=1;aspect=fixed;" parent="1" vertex="1">
          <mxGeometry x="1030" y="769.9999999999999" width="30" height="30" as="geometry" />
        </mxCell>
        <mxCell id="GS6m8zJGMtgKhHzVI7Pk-16" value="" style="endArrow=none;html=1;rounded=0;exitX=1;exitY=0.5;exitDx=0;exitDy=0;entryX=0;entryY=1;entryDx=0;entryDy=0;" parent="1" source="GS6m8zJGMtgKhHzVI7Pk-4" target="GS6m8zJGMtgKhHzVI7Pk-15" edge="1">
          <mxGeometry width="50" height="50" relative="1" as="geometry">
            <mxPoint x="972" y="835" as="sourcePoint" />
            <mxPoint x="1020" y="776" as="targetPoint" />
          </mxGeometry>
        </mxCell>
        <mxCell id="GS6m8zJGMtgKhHzVI7Pk-17" value="" style="ellipse;whiteSpace=wrap;html=1;aspect=fixed;" parent="1" vertex="1">
          <mxGeometry x="1036" y="809.9999999999999" width="30" height="30" as="geometry" />
        </mxCell>
        <mxCell id="GS6m8zJGMtgKhHzVI7Pk-18" value="" style="endArrow=none;html=1;rounded=0;exitX=1;exitY=0.5;exitDx=0;exitDy=0;entryX=0;entryY=0.5;entryDx=0;entryDy=0;" parent="1" source="GS6m8zJGMtgKhHzVI7Pk-4" target="GS6m8zJGMtgKhHzVI7Pk-17" edge="1">
          <mxGeometry width="50" height="50" relative="1" as="geometry">
            <mxPoint x="972" y="835" as="sourcePoint" />
            <mxPoint x="1044" y="806" as="targetPoint" />
          </mxGeometry>
        </mxCell>
        <mxCell id="GS6m8zJGMtgKhHzVI7Pk-19" value="" style="ellipse;whiteSpace=wrap;html=1;aspect=fixed;" parent="1" vertex="1">
          <mxGeometry x="1036" y="849.9999999999999" width="30" height="30" as="geometry" />
        </mxCell>
        <mxCell id="GS6m8zJGMtgKhHzVI7Pk-20" value="" style="endArrow=none;html=1;rounded=0;exitX=1;exitY=0.5;exitDx=0;exitDy=0;entryX=0;entryY=0.5;entryDx=0;entryDy=0;" parent="1" source="GS6m8zJGMtgKhHzVI7Pk-4" target="GS6m8zJGMtgKhHzVI7Pk-19" edge="1">
          <mxGeometry width="50" height="50" relative="1" as="geometry">
            <mxPoint x="972" y="835" as="sourcePoint" />
            <mxPoint x="1046" y="835" as="targetPoint" />
          </mxGeometry>
        </mxCell>
        <mxCell id="GS6m8zJGMtgKhHzVI7Pk-21" value="" style="ellipse;whiteSpace=wrap;html=1;aspect=fixed;" parent="1" vertex="1">
          <mxGeometry x="1036" y="885.8599999999999" width="30" height="30" as="geometry" />
        </mxCell>
        <mxCell id="GS6m8zJGMtgKhHzVI7Pk-22" value="" style="endArrow=none;html=1;rounded=0;exitX=1;exitY=0.5;exitDx=0;exitDy=0;entryX=0;entryY=0.5;entryDx=0;entryDy=0;" parent="1" source="GS6m8zJGMtgKhHzVI7Pk-4" target="GS6m8zJGMtgKhHzVI7Pk-21" edge="1">
          <mxGeometry width="50" height="50" relative="1" as="geometry">
            <mxPoint x="972" y="835" as="sourcePoint" />
            <mxPoint x="1046" y="875" as="targetPoint" />
          </mxGeometry>
        </mxCell>
        <mxCell id="GS6m8zJGMtgKhHzVI7Pk-23" value="min" style="text;html=1;align=center;verticalAlign=middle;resizable=0;points=[];autosize=1;strokeColor=none;fillColor=none;" parent="1" vertex="1">
          <mxGeometry x="949.5" y="698" width="40" height="30" as="geometry" />
        </mxCell>
        <mxCell id="GS6m8zJGMtgKhHzVI7Pk-24" value="" style="endArrow=none;html=1;rounded=0;exitX=1;exitY=0.5;exitDx=0;exitDy=0;" parent="1" edge="1">
          <mxGeometry width="50" height="50" relative="1" as="geometry">
            <mxPoint x="959.5" y="818.9999999999999" as="sourcePoint" />
            <mxPoint x="960" y="720" as="targetPoint" />
          </mxGeometry>
        </mxCell>
        <mxCell id="GS6m8zJGMtgKhHzVI7Pk-25" value="" style="endArrow=none;html=1;rounded=0;" parent="1" edge="1">
          <mxGeometry width="50" height="50" relative="1" as="geometry">
            <mxPoint x="960" y="720" as="sourcePoint" />
            <mxPoint x="980" y="720" as="targetPoint" />
          </mxGeometry>
        </mxCell>
        <mxCell id="GS6m8zJGMtgKhHzVI7Pk-27" value="&lt;span style=&quot;text-align: left; text-wrap-mode: wrap;&quot;&gt;field_goal_&lt;/span&gt;&lt;span style=&quot;text-align: left; text-wrap-mode: wrap; background-color: transparent; color: light-dark(rgb(0, 0, 0), rgb(255, 255, 255));&quot;&gt;made&lt;/span&gt;" style="text;html=1;align=center;verticalAlign=middle;resizable=0;points=[];autosize=1;strokeColor=none;fillColor=none;" parent="1" vertex="1">
          <mxGeometry x="1032" y="740" width="110" height="30" as="geometry" />
        </mxCell>
        <mxCell id="GS6m8zJGMtgKhHzVI7Pk-28" value="&lt;span style=&quot;text-align: left; text-wrap-mode: wrap;&quot;&gt;field_goal_attempt&lt;/span&gt;" style="text;html=1;align=center;verticalAlign=middle;resizable=0;points=[];autosize=1;strokeColor=none;fillColor=none;" parent="1" vertex="1">
          <mxGeometry x="1060" y="770" width="120" height="30" as="geometry" />
        </mxCell>
        <mxCell id="GS6m8zJGMtgKhHzVI7Pk-30" value="&lt;span style=&quot;text-align: left; text-wrap-mode: wrap;&quot;&gt;free_throw_made&lt;/span&gt;" style="text;html=1;align=center;verticalAlign=middle;resizable=0;points=[];autosize=1;strokeColor=none;fillColor=none;" parent="1" vertex="1">
          <mxGeometry x="1060" y="810" width="120" height="30" as="geometry" />
        </mxCell>
        <mxCell id="GS6m8zJGMtgKhHzVI7Pk-31" value="&lt;span style=&quot;text-align: left; text-wrap-mode: wrap;&quot;&gt;free_throw_attempt&lt;/span&gt;" style="text;html=1;align=center;verticalAlign=middle;resizable=0;points=[];autosize=1;strokeColor=none;fillColor=none;" parent="1" vertex="1">
          <mxGeometry x="1060" y="850" width="130" height="30" as="geometry" />
        </mxCell>
        <mxCell id="GS6m8zJGMtgKhHzVI7Pk-32" value="" style="ellipse;whiteSpace=wrap;html=1;aspect=fixed;" parent="1" vertex="1">
          <mxGeometry x="1037" y="921.9999999999999" width="30" height="30" as="geometry" />
        </mxCell>
        <mxCell id="GS6m8zJGMtgKhHzVI7Pk-33" value="" style="endArrow=none;html=1;rounded=0;exitX=1;exitY=0.5;exitDx=0;exitDy=0;entryX=0;entryY=0.5;entryDx=0;entryDy=0;" parent="1" source="GS6m8zJGMtgKhHzVI7Pk-4" target="GS6m8zJGMtgKhHzVI7Pk-32" edge="1">
          <mxGeometry width="50" height="50" relative="1" as="geometry">
            <mxPoint x="972" y="835" as="sourcePoint" />
            <mxPoint x="1046" y="911" as="targetPoint" />
          </mxGeometry>
        </mxCell>
        <mxCell id="GS6m8zJGMtgKhHzVI7Pk-34" value="field_goal_3_attempt" style="text;html=1;align=center;verticalAlign=middle;resizable=0;points=[];autosize=1;strokeColor=none;fillColor=none;" parent="1" vertex="1">
          <mxGeometry x="1066" y="880" width="130" height="30" as="geometry" />
        </mxCell>
        <mxCell id="GS6m8zJGMtgKhHzVI7Pk-35" value="field_goal_3_made" style="text;html=1;align=center;verticalAlign=middle;resizable=0;points=[];autosize=1;strokeColor=none;fillColor=none;" parent="1" vertex="1">
          <mxGeometry x="1071" y="920" width="120" height="30" as="geometry" />
        </mxCell>
        <mxCell id="GS6m8zJGMtgKhHzVI7Pk-37" value="" style="endArrow=none;html=1;rounded=0;entryX=1;entryY=0;entryDx=0;entryDy=0;" parent="1" edge="1">
          <mxGeometry relative="1" as="geometry">
            <mxPoint x="640" y="360" as="sourcePoint" />
            <mxPoint x="714.3066017177982" y="474.8933982822018" as="targetPoint" />
            <Array as="points">
              <mxPoint x="714" y="360" />
            </Array>
          </mxGeometry>
        </mxCell>
        <mxCell id="GS6m8zJGMtgKhHzVI7Pk-39" value="" style="endArrow=none;html=1;rounded=0;entryX=0.608;entryY=0.022;entryDx=0;entryDy=0;entryPerimeter=0;" parent="1" target="HAxubspQe0TTmZOSSiqT-11" edge="1">
          <mxGeometry relative="1" as="geometry">
            <mxPoint x="640" y="379" as="sourcePoint" />
            <mxPoint x="708" y="470" as="targetPoint" />
            <Array as="points">
              <mxPoint x="707.5" y="379.47" />
            </Array>
          </mxGeometry>
        </mxCell>
        <mxCell id="GS6m8zJGMtgKhHzVI7Pk-40" value="" style="endArrow=none;html=1;rounded=0;entryX=0.362;entryY=0.018;entryDx=0;entryDy=0;entryPerimeter=0;" parent="1" target="HAxubspQe0TTmZOSSiqT-11" edge="1">
          <mxGeometry relative="1" as="geometry">
            <mxPoint x="650" y="400" as="sourcePoint" />
            <mxPoint x="700" y="470" as="targetPoint" />
            <Array as="points">
              <mxPoint x="700" y="399.97" />
            </Array>
          </mxGeometry>
        </mxCell>
        <mxCell id="GS6m8zJGMtgKhHzVI7Pk-41" value="" style="endArrow=none;html=1;rounded=0;entryX=0.179;entryY=0.111;entryDx=0;entryDy=0;entryPerimeter=0;" parent="1" target="HAxubspQe0TTmZOSSiqT-11" edge="1">
          <mxGeometry relative="1" as="geometry">
            <mxPoint x="660" y="420" as="sourcePoint" />
            <mxPoint x="694" y="492" as="targetPoint" />
            <Array as="points">
              <mxPoint x="694" y="419.97" />
            </Array>
          </mxGeometry>
        </mxCell>
        <mxCell id="qTp84bqXp6Zc5_fNvq8x-1" value="" style="ellipse;whiteSpace=wrap;html=1;aspect=fixed;" parent="1" vertex="1">
          <mxGeometry x="1033" y="959.7199999999999" width="30" height="30" as="geometry" />
        </mxCell>
        <mxCell id="qTp84bqXp6Zc5_fNvq8x-2" value="block" style="text;html=1;align=center;verticalAlign=middle;resizable=0;points=[];autosize=1;strokeColor=none;fillColor=none;" parent="1" vertex="1">
          <mxGeometry x="1062" y="960.72" width="50" height="30" as="geometry" />
        </mxCell>
        <mxCell id="qTp84bqXp6Zc5_fNvq8x-3" value="assist" style="text;html=1;align=center;verticalAlign=middle;resizable=0;points=[];autosize=1;strokeColor=none;fillColor=none;" parent="1" vertex="1">
          <mxGeometry x="1020" y="991.72" width="50" height="30" as="geometry" />
        </mxCell>
        <mxCell id="qTp84bqXp6Zc5_fNvq8x-4" value="" style="endArrow=none;html=1;rounded=0;exitX=1;exitY=0.5;exitDx=0;exitDy=0;entryX=0;entryY=0;entryDx=0;entryDy=0;" parent="1" source="GS6m8zJGMtgKhHzVI7Pk-4" target="qTp84bqXp6Zc5_fNvq8x-1" edge="1">
          <mxGeometry width="50" height="50" relative="1" as="geometry">
            <mxPoint x="972" y="835" as="sourcePoint" />
            <mxPoint x="1046" y="945" as="targetPoint" />
          </mxGeometry>
        </mxCell>
        <mxCell id="qTp84bqXp6Zc5_fNvq8x-5" value="" style="ellipse;whiteSpace=wrap;html=1;aspect=fixed;" parent="1" vertex="1">
          <mxGeometry x="1000" y="975.8599999999999" width="30" height="30" as="geometry" />
        </mxCell>
        <mxCell id="qTp84bqXp6Zc5_fNvq8x-6" value="" style="endArrow=none;html=1;rounded=0;exitX=1;exitY=0.5;exitDx=0;exitDy=0;entryX=0;entryY=0;entryDx=0;entryDy=0;" parent="1" source="GS6m8zJGMtgKhHzVI7Pk-4" target="qTp84bqXp6Zc5_fNvq8x-5" edge="1">
          <mxGeometry width="50" height="50" relative="1" as="geometry">
            <mxPoint x="972" y="835" as="sourcePoint" />
            <mxPoint x="1046" y="987" as="targetPoint" />
          </mxGeometry>
        </mxCell>
        <mxCell id="qTp84bqXp6Zc5_fNvq8x-7" value="" style="ellipse;whiteSpace=wrap;html=1;aspect=fixed;" parent="1" vertex="1">
          <mxGeometry x="963.5" y="989.9999999999999" width="30" height="30" as="geometry" />
        </mxCell>
        <mxCell id="qTp84bqXp6Zc5_fNvq8x-8" value="" style="endArrow=none;html=1;rounded=0;exitX=1;exitY=0.5;exitDx=0;exitDy=0;entryX=0.5;entryY=0;entryDx=0;entryDy=0;" parent="1" source="GS6m8zJGMtgKhHzVI7Pk-4" target="qTp84bqXp6Zc5_fNvq8x-7" edge="1">
          <mxGeometry width="50" height="50" relative="1" as="geometry">
            <mxPoint x="971" y="835" as="sourcePoint" />
            <mxPoint x="1014" y="990" as="targetPoint" />
          </mxGeometry>
        </mxCell>
        <mxCell id="qTp84bqXp6Zc5_fNvq8x-9" value="steal" style="text;html=1;align=center;verticalAlign=middle;resizable=0;points=[];autosize=1;strokeColor=none;fillColor=none;" parent="1" vertex="1">
          <mxGeometry x="956" y="1015" width="50" height="30" as="geometry" />
        </mxCell>
        <mxCell id="qTp84bqXp6Zc5_fNvq8x-11" value="" style="endArrow=none;html=1;rounded=0;exitX=1;exitY=0.5;exitDx=0;exitDy=0;entryX=0.5;entryY=0;entryDx=0;entryDy=0;" parent="1" source="GS6m8zJGMtgKhHzVI7Pk-4" target="qTp84bqXp6Zc5_fNvq8x-12" edge="1">
          <mxGeometry width="50" height="50" relative="1" as="geometry">
            <mxPoint x="916.5" y="908.36" as="sourcePoint" />
            <mxPoint x="940" y="990" as="targetPoint" />
          </mxGeometry>
        </mxCell>
        <mxCell id="qTp84bqXp6Zc5_fNvq8x-12" value="" style="ellipse;whiteSpace=wrap;html=1;aspect=fixed;" parent="1" vertex="1">
          <mxGeometry x="923.5" y="991.7199999999999" width="30" height="30" as="geometry" />
        </mxCell>
        <mxCell id="qTp84bqXp6Zc5_fNvq8x-13" value="oreb" style="text;html=1;align=center;verticalAlign=middle;resizable=0;points=[];autosize=1;strokeColor=none;fillColor=none;" parent="1" vertex="1">
          <mxGeometry x="915" y="1016" width="50" height="30" as="geometry" />
        </mxCell>
        <mxCell id="qTp84bqXp6Zc5_fNvq8x-14" value="" style="ellipse;whiteSpace=wrap;html=1;aspect=fixed;" parent="1" vertex="1">
          <mxGeometry x="896" y="949.9999999999999" width="30" height="30" as="geometry" />
        </mxCell>
        <mxCell id="qTp84bqXp6Zc5_fNvq8x-15" value="" style="endArrow=none;html=1;rounded=0;exitX=1;exitY=0.5;exitDx=0;exitDy=0;entryX=1;entryY=0.5;entryDx=0;entryDy=0;" parent="1" source="GS6m8zJGMtgKhHzVI7Pk-4" target="qTp84bqXp6Zc5_fNvq8x-14" edge="1">
          <mxGeometry width="50" height="50" relative="1" as="geometry">
            <mxPoint x="972" y="835" as="sourcePoint" />
            <mxPoint x="949" y="1002" as="targetPoint" />
          </mxGeometry>
        </mxCell>
        <mxCell id="qTp84bqXp6Zc5_fNvq8x-16" value="foul" style="text;html=1;align=center;verticalAlign=middle;resizable=0;points=[];autosize=1;strokeColor=none;fillColor=none;" parent="1" vertex="1">
          <mxGeometry x="881" y="975.86" width="40" height="30" as="geometry" />
        </mxCell>
        <mxCell id="qTp84bqXp6Zc5_fNvq8x-17" value="" style="verticalLabelPosition=bottom;verticalAlign=top;html=1;shape=mxgraph.basic.arc;startAngle=0.006362805673995916;endAngle=0.1304859278080055;rotation=-60;" parent="1" vertex="1">
          <mxGeometry x="894.04" y="800.94" width="106.5" height="105" as="geometry" />
        </mxCell>
        <mxCell id="zR1lcoJKVX7qruTRHw0h-1" value="" style="endArrow=none;html=1;rounded=0;entryX=1;entryY=1;entryDx=0;entryDy=0;exitX=0.01;exitY=0.316;exitDx=0;exitDy=0;exitPerimeter=0;" edge="1" parent="1" source="GS6m8zJGMtgKhHzVI7Pk-4" target="HAxubspQe0TTmZOSSiqT-11">
          <mxGeometry width="50" height="50" relative="1" as="geometry">
            <mxPoint x="760" y="680" as="sourcePoint" />
            <mxPoint x="810" y="630" as="targetPoint" />
          </mxGeometry>
        </mxCell>
      </root>
    </mxGraphModel>
  </diagram>
</mxfile>
